<?xml version="1.0" standalone="no"?>
<!DOCTYPE svg PUBLIC "-//W3C//DTD SVG 20010904//EN"
 "http://www.w3.org/TR/2001/REC-SVG-20010904/DTD/svg10.dtd">
<svg version="1.0" xmlns="http://www.w3.org/2000/svg"
 width="700.000000pt" height="700.000000pt" viewBox="0 0 700.000000 700.000000"
 preserveAspectRatio="xMidYMid meet">
<metadata>
Created by potrace 1.14, written by Peter Selinger 2001-2017
</metadata>
<g transform="translate(0.000000,700.000000) scale(0.100000,-0.100000)"
fill="#000000" stroke="none">
<path d="M462 6506 c-8 -14 -6 -6085 2 -6094 4 -4 1380 -7 3057 -8 l3049 0 0
3053 c0 1679 -3 3054 -7 3054 -42 7 -6096 2 -6101 -5z m5838 -3046 l0 -2787
-2785 0 -2785 1 -1 20 c-1 27 -1 5505 0 5532 l1 20 2785 0 2785 0 0 -2786z"/>
<path d="M4009 5876 c-2 -2 -22 -6 -45 -9 -96 -13 -257 -96 -375 -193 -57 -47
-222 -213 -379 -384 -114 -123 -266 -286 -347 -371 l-62 -65 23 -24 c13 -14
73 -72 135 -129 62 -58 129 -121 150 -140 21 -20 89 -83 151 -141 61 -58 129
-121 149 -140 61 -57 273 -255 311 -290 19 -18 96 -89 170 -159 74 -69 166
-155 204 -191 39 -36 104 -97 145 -136 42 -39 90 -84 106 -99 17 -14 86 -79
154 -143 69 -65 132 -124 141 -132 10 -8 38 -35 64 -60 l46 -45 25 28 c13 16
81 90 152 164 70 75 136 145 145 155 9 11 73 79 141 151 172 183 180 192 257
282 170 201 261 403 263 588 2 210 -55 341 -217 502 -97 96 -101 99 -203 156
-97 55 -255 81 -379 63 -104 -14 -142 -27 -242 -80 l-82 -44 23 37 c13 21 34
65 47 98 31 80 34 224 6 305 -64 187 -291 396 -472 435 -34 8 -199 16 -205 11z
m121 -371 c91 -32 202 -132 246 -223 80 -164 23 -336 -183 -554 -28 -29 -65
-69 -83 -88 -148 -160 -254 -270 -261 -270 -5 0 -24 15 -43 33 -63 60 -171
162 -295 277 -266 247 -245 225 -230 248 53 75 439 469 502 511 123 83 237
105 347 66z m923 -729 c85 -41 199 -140 252 -221 87 -130 96 -266 30 -410 -45
-97 -101 -167 -354 -434 -18 -20 -70 -75 -114 -123 -45 -49 -84 -88 -87 -88
-7 0 -55 44 -204 184 -72 68 -144 135 -161 150 -16 16 -83 78 -149 139 -65 62
-137 129 -159 149 -43 42 -43 41 13 99 14 14 79 84 145 155 221 238 290 305
360 351 156 104 284 118 428 49z"/>
<path d="M2200 3953 c-50 -8 -157 -46 -218 -76 -132 -65 -255 -173 -502 -437
-74 -79 -164 -176 -200 -214 -36 -38 -100 -106 -142 -150 l-78 -81 73 -70 c40
-38 130 -124 201 -190 71 -66 148 -137 170 -158 49 -46 253 -238 306 -287 21
-19 93 -87 161 -150 68 -63 137 -128 155 -145 17 -16 60 -57 95 -89 35 -33
100 -94 144 -135 45 -42 112 -105 150 -141 181 -169 340 -317 360 -335 12 -11
47 -44 78 -74 l56 -55 78 84 c43 46 97 104 121 129 41 43 51 66 33 73 -9 3
-29 21 -271 248 -69 65 -141 132 -160 150 -45 42 -247 231 -316 295 -30 28
-54 54 -54 58 0 10 109 126 265 282 153 153 231 194 373 199 57 2 96 -3 227
-28 24 -5 202 -56 580 -169 l280 -83 81 85 c44 47 104 111 132 141 l51 55 -67
21 c-37 12 -148 45 -247 73 -99 29 -191 56 -205 61 -45 15 -163 49 -290 85
-206 57 -280 69 -435 68 -86 0 -121 -5 -162 -21 -37 -14 -53 -16 -53 -8 0 7 4
16 8 21 26 30 60 191 57 276 -9 274 -272 578 -585 675 -46 14 -204 25 -250 17z
m194 -407 c128 -63 245 -188 290 -309 43 -115 18 -257 -67 -384 -48 -70 -57
-81 -237 -273 -60 -63 -120 -128 -134 -143 -32 -35 -22 -41 -192 119 -176 165
-313 294 -471 441 -29 27 -53 51 -53 55 0 3 14 21 31 39 319 343 359 383 432
427 88 53 151 71 243 69 71 -2 90 -7 158 -41z"/>
</g>
</svg>
